<svg xmlns="http://www.w3.org/2000/svg" version="1.1" xmlns:xlink="http://www.w3.org/1999/xlink" xmlns:svgjs="http://svgjs.com/svgjs" width="1440" height="560" preserveAspectRatio="none" viewBox="0 0 1440 560"><g mask="url(&quot;#SvgjsMask1001&quot;)" fill="none"><rect width="1440" height="560" x="0" y="0" fill="#0e2a47"></rect><path d="M0 18.67C37.52 -11.89 69.96 24.67 140 26C209.96 27.33 214.89 34.7 280 24C294.02 21.7 284.36 2.38 298.26 0C354.36 -9.62 359.13 0 420 0C490 0 490 0 560 0C630 0 630 0 700 0C770 0 770 0 840 0C910 0 910 0 980 0C1050 0 1050 0 1120 0C1190 0 1190 0 1260 0C1311.15 0 1319.81 -16.53 1362.31 0C1389.81 10.69 1380.64 54.44 1400 54.44C1419.9 54.44 1412.34 11.08 1440.83 0C1482.34 -16.14 1509.61 -19.19 1540 0C1559.19 12.12 1555.74 38.64 1540 62.63C1509.81 108.64 1448.13 109.72 1448.13 140C1448.13 164.56 1518.19 139.07 1540 172.31C1564.12 209.07 1540 226.15 1540 280C1540 350 1540 350 1540 420C1540 490 1575 525 1540 560C1505 595 1470 560 1400 560C1330 560 1330 560 1260 560C1190 560 1190 560 1120 560C1061.66 560 1061.45 562.04 1003.33 560C991.45 559.58 991.84 556.42 980 555.09C910.17 547.21 905.66 539.45 840 541.58C829.82 541.91 838.5 558.66 828.33 560C768.5 567.87 764.16 560 700 560C630 560 630 560 560 560C490 560 490 560 420 560C350 560 350 560 280 560C210 560 210 560 140 560C70 560 35 595 0 560C-35 525 0 490 0 420C0 361.66 -18.96 348.83 0 303.33C10.21 278.83 58.33 294.7 58.33 280C58.33 263.59 11.94 269.77 0 241.11C-17.22 199.77 0 190.56 0 140C0 79.34 -32.48 45.11 0 18.67" stroke="rgba(51, 121, 194, 0.58)" stroke-width="2"></path><path d="M700 110.16C680.16 110.16 665.66 122.5 665.66 140C665.66 164.99 677.17 195.15 700 195.15C733.9 195.15 779.13 162.64 779.13 140C779.13 120.15 736.89 110.16 700 110.16" stroke="rgba(51, 121, 194, 0.58)" stroke-width="2"></path><path d="M420 253.19C405.7 253.19 399.62 263.04 396.23 280C382.95 346.44 378.75 352.75 386.67 420C390.63 453.63 401.3 481.76 420 481.76C440.31 481.76 455.8 455.54 464.68 420C481 354.66 486.27 339.26 470.4 280C463.93 255.86 442.78 253.19 420 253.19" stroke="rgba(51, 121, 194, 0.58)" stroke-width="2"></path><path d="M140 334.44C118.37 334.44 97.22 380.46 97.22 420C97.22 445.56 118.45 464.64 140 464.64C161.84 464.64 184 445.68 184 420C184 380.58 161.76 334.44 140 334.44" stroke="rgba(51, 121, 194, 0.58)" stroke-width="2"></path><path d="M700 355.68C675.87 355.68 651.43 391.84 651.43 420C651.43 440.53 675.79 453.06 700 453.06C723.88 453.06 747.6 440.45 747.6 420C747.6 391.76 723.96 355.68 700 355.68" stroke="rgba(51, 121, 194, 0.58)" stroke-width="2"></path><path d="M1260 382.44C1241.3 382.44 1225.78 399.99 1225.78 420C1225.78 444.02 1240.79 470.49 1260 470.49C1281.97 470.49 1308.13 443.48 1308.13 420C1308.13 399.45 1282.47 382.44 1260 382.44" stroke="rgba(51, 121, 194, 0.58)" stroke-width="2"></path><path d="M0 135.33C67.91 104.28 69.05 78.87 140 76C209.05 73.21 222.92 142.51 280 124C340.09 104.51 320.21 47.95 374.35 0C390.21 -14.05 397.17 0 420 0C490 0 490 0 560 0C630 0 630 0 700 0C770 0 770 0 840 0C896.45 0 901.94 -11.76 952.9 0C971.94 4.39 964.69 32.31 980 32.31C999.24 32.31 997.43 5.67 1022 0C1067.43 -10.49 1071 0 1120 0C1169 0 1174.42 -13.08 1218 0C1244.42 7.92 1241.5 18.88 1260 42C1297.5 88.88 1302.09 87.13 1330 140C1364.91 206.13 1356.5 210.62 1385.64 280C1391.5 293.95 1393.41 306.67 1400 306.67C1406.31 306.67 1399.83 287.95 1411.43 280C1469.83 240 1496.39 210.77 1540 210.77C1560.68 210.77 1540 245.38 1540 280C1540 350 1540 350 1540 420C1540 490 1575 525 1540 560C1505 595 1470 560 1400 560C1330 560 1330 560 1260 560C1226.2 560 1192.41 567.62 1192.41 560C1192.41 551.56 1231.52 551.27 1260 527.87C1316.72 481.27 1362.81 470.16 1362.81 420C1362.81 376.1 1308.92 382.62 1260 339.76C1229.03 312.62 1228.93 312.04 1203.02 280C1158.93 225.49 1174.98 185.84 1120 166.67C1063.47 146.95 1038.84 168.12 980 202.22C941.06 224.79 924.44 242.46 924.44 280C924.44 313.17 943.29 329.38 980 343.64C1041.07 367.36 1057.64 332.94 1120 355.96C1161.09 371.12 1186.89 384.04 1186.89 420C1186.89 467.95 1167.9 506.73 1120 523.79C1064.45 543.57 1049.13 512.03 980 493.68C909.13 474.87 904.85 478.89 840 449.47C823.65 442.05 828.51 434.95 817.6 420C766.65 350.21 710.45 342.54 716.28 280C721.65 222.35 776.71 227.85 840 179.62C868.57 157.85 900 161.84 900 140C900 115.78 875.6 103.02 840 87.5C775.6 59.42 762.54 39.13 700 52.79C642.35 65.38 640.26 89.28 599.62 140C570.26 176.64 595.31 219.89 560 227.5C505.5 239.25 480.06 165 420 178.72C365.16 191.25 352.04 220.7 330.19 280C307.59 341.34 315.94 353.19 331.11 420C347.72 493.19 408.42 519.81 393.75 560C382.87 589.81 336.88 560 280 560C210 560 210 560 140 560C70 560 35 595 0 560C-35 525 0 490 0 420C0 390.84 -10.56 361.67 0 361.67C13.75 361.67 23.06 391.95 48.61 420C93.06 468.79 93.97 515.36 140 515.36C186.66 515.36 221.74 476.22 234 420C247.4 358.54 224.25 341.57 191.33 280C177.25 253.67 165.5 262.33 140 244.19C69.83 194.27 68.45 194.83 0 143.89C-1.55 142.74 0 141.94 0 140C0 137.67 -2.09 136.28 0 135.33" stroke="rgba(51, 121, 194, 0.58)" stroke-width="2"></path><path d="M539.15 420C555.32 392.26 549.77 358.75 560 358.75C570.19 358.75 558.48 398.03 580 420C628.48 469.49 641.64 458.67 700 501.67C736.64 528.67 770 543.51 770 560C770 572.67 735 560 700 560C630 560 630 560 560 560C501.35 560 446.96 588.58 442.7 560C436.53 518.58 496.67 492.89 539.15 420" stroke="rgba(51, 121, 194, 0.58)" stroke-width="2"></path><path d="M108.39 140C108.39 131.35 124.07 126 140 126C157.37 126 175 131.27 175 140C175 149.67 157.23 162.79 140 162.79C123.92 162.79 108.39 149.75 108.39 140" stroke="rgba(51, 121, 194, 0.58)" stroke-width="2"></path><path d="M560 73.33C519.08 73.33 486.67 21.48 486.67 0C486.67 -15.19 523.34 0 560 0C619.23 0 678.46 -16.85 678.46 0C678.46 19.82 614.97 73.33 560 73.33" stroke="rgba(51, 121, 194, 0.58)" stroke-width="2"></path><path d="M797.67 280C797.67 259.85 820.47 245.66 840 245.66C856.08 245.66 868.89 260.98 868.89 280C868.89 308.48 856.95 340.67 840 340.67C821.34 340.67 797.67 307.35 797.67 280" stroke="rgba(51, 121, 194, 0.58)" stroke-width="2"></path><path d="M1243.72 280C1243.72 248.84 1247.6 213.33 1260 213.33C1273.69 213.33 1295.9 252.54 1295.9 280C1295.9 294.41 1276.37 297.07 1260 297.07C1250.28 297.07 1243.72 290.71 1243.72 280" stroke="rgba(51, 121, 194, 0.58)" stroke-width="2"></path><path d="M1482.86 280C1482.86 258.57 1520.62 249.23 1540 249.23C1549.19 249.23 1540 264.62 1540 280C1540 316.84 1552.61 353.68 1540 353.68C1524.04 353.68 1482.86 310.79 1482.86 280" stroke="rgba(51, 121, 194, 0.58)" stroke-width="2"></path><path d="M948.18 420C948.18 413.73 963.17 409.9 980 407.27C1049.08 396.49 1054.14 388.2 1120 393.19C1138.14 394.56 1148 404.94 1148 420C1148 440.07 1142.25 461.82 1120 463.45C1058.25 467.96 1049.41 449.83 980 432.28C963.5 428.11 948.18 426.24 948.18 420" stroke="rgba(51, 121, 194, 0.58)" stroke-width="2"></path><path d="M245 560C245 545.42 269.08 513.33 280 513.33C288.77 513.33 284.38 538.66 284.38 560C284.38 561.99 282.19 560 280 560C262.5 560 245 568.75 245 560" stroke="rgba(51, 121, 194, 0.58)" stroke-width="2"></path><path d="M537.3 560C537.3 548.67 541.55 526.1 560 525C622.9 521.24 631.48 534.47 700 550.28C707.32 551.97 711.67 557.25 711.67 560C711.67 562.11 705.84 560 700 560C630 560 630 560 560 560C548.65 560 537.3 566.17 537.3 560" stroke="rgba(51, 121, 194, 0.58)" stroke-width="2"></path><path d="M1311.33 560C1311.33 530.48 1354.37 461.48 1400 461.48C1447.96 461.48 1498.52 531.14 1498.52 560C1498.52 580.4 1449.26 560 1400 560C1355.66 560 1311.33 579.74 1311.33 560" stroke="rgba(51, 121, 194, 0.58)" stroke-width="2"></path></g><defs><mask id="SvgjsMask1001"><rect width="1440" height="560" fill="#ffffff"></rect></mask></defs></svg>