<svg xmlns="http://www.w3.org/2000/svg" version="1.1" xmlns:xlink="http://www.w3.org/1999/xlink" xmlns:svgjs="http://svgjs.com/svgjs" width="1440" height="560" preserveAspectRatio="none" viewBox="0 0 1440 560"><g mask="url(&quot;#SvgjsMask1003&quot;)" fill="none"><rect width="1440" height="560" x="0" y="0" fill="rgba(0, 0, 0, 1)"></rect><path d="M280 70C246.57 70 197.65 109.73 197.65 140C197.65 165.94 243.64 182.42 280 182.42C300.9 182.42 312.18 162.97 312.18 140C312.18 106.76 303.83 70 280 70" stroke="rgba(255, 254, 254, 0.99)" stroke-width="2"></path><path d="M474.78 0C518.81 11.63 524.31 8.88 560 36.98C613.19 78.88 630.79 79.6 652.54 140C674.54 201.11 669.26 216.21 647.5 280C622.99 351.83 604.96 346.69 560 411.25C556.21 416.69 550 416.4 550 420C550 422.96 556.54 420.2 560 424.38C614.47 490.2 665.85 518.02 665.85 560C665.85 585.83 612.92 560 560 560C490 560 490 560 420 560C350 560 350 560 280 560C260 560 240 565.61 240 560C240 553.43 264.77 552.97 280 535.65C326.33 482.97 363.13 467.43 363.13 420C363.13 389.14 324.05 391.87 280 379.08C212.48 359.47 197.83 341.75 140 355.19C109.79 362.21 107.76 384.65 103.92 420C96.65 487.05 146.06 521.9 117.78 560C94.1 591.9 26.91 591.98 0 560C-31.98 521.98 0 490 0 420C0 357 -11.97 349.35 0 294C3.17 279.35 30.27 291.07 30.27 280C30.27 262.53 5.33 261.56 0 236.92C-9.81 191.56 0 188.46 0 140C0 70 -35 35 0 0C35 -35 70 0 140 0C210 0 210 0 280 0C350 0 350 0 420 0C447.39 0 448.81 -6.86 474.78 0" stroke="rgba(255, 254, 254, 0.99)" stroke-width="2"></path><path d="M752.83 140C758.86 70.89 718.22 41.58 744.11 0C761.81 -28.42 792.06 0 840 0C910 0 910 0 980 0C1050 0 1050 0 1120 0C1173.78 0 1178.07 -10.81 1227.56 0C1248.07 4.48 1244.01 30.57 1260 30.57C1275.51 30.57 1270.75 4.33 1290.57 0C1340.75 -10.96 1345.28 0 1400 0C1470 0 1505 -35 1540 0C1575 35 1540 70 1540 140C1540 191.7 1554.66 198.78 1540 243.41C1531.66 268.78 1494 259.79 1494 280C1494 303.64 1529.97 300.58 1540 331.11C1552.97 370.58 1540 375.56 1540 420C1540 469.13 1552.86 474.38 1540 518.25C1532.34 544.38 1524.99 552.24 1498.97 560C1454.99 573.12 1449.49 560 1400 560C1343.72 560 1332.49 578.02 1287.45 560C1262.49 550.02 1273.52 504 1260 504C1246.58 504 1258.28 550.12 1233.58 560C1188.28 578.12 1176.79 560 1120 560C1050 560 1050 560 980 560C910 560 910 560 840 560C799.16 560 778.12 585.49 758.33 560C723.78 515.49 741.05 490.52 731.32 420C721.73 350.52 714.38 349.17 719.69 280C725.13 209.17 746.65 210.89 752.83 140" stroke="rgba(255, 254, 254, 0.99)" stroke-width="2"></path><path d="M1260 242.37C1198.77 242.37 1130.37 251.02 1130.37 280C1130.37 313.58 1205.66 367.5 1260 367.5C1294.78 367.5 1308.61 318.76 1308.61 280C1308.61 256.2 1287.89 242.37 1260 242.37" stroke="rgba(255, 254, 254, 0.99)" stroke-width="2"></path><path d="M980 338.95C952.41 338.95 941.98 381.45 941.98 420C941.98 447.22 955.48 470.49 980 470.49C1021.16 470.49 1073.33 450.38 1073.33 420C1073.33 384.61 1018.09 338.95 980 338.95" stroke="rgba(255, 254, 254, 0.99)" stroke-width="2"></path><path d="M140 107.23C79.28 132.02 39.62 137.68 0 107.33C-30.38 84.06 -30.38 23.29 0 0C39.62 -30.38 70 0 140 0C201.47 0 262.93 -23.04 262.93 0C262.93 30.57 210.75 78.35 140 107.23" stroke="rgba(255, 254, 254, 0.99)" stroke-width="2"></path><path d="M352.41 140C387.71 90.38 374.17 46.78 420 38.62C477.96 28.29 494.51 64.69 560 103.02C581.12 115.38 593.22 118.61 593.22 140C593.22 177.94 580.55 182.99 560 221.67C543.35 252.99 542.93 253.88 518.82 280C472.93 329.71 477.16 362.5 420 373.33C357.75 385.12 350.9 346.24 280 325.23C210.9 304.76 208.82 310.43 140 290.37C131.25 287.82 124.86 287.46 124.86 280C124.86 263.61 122.69 247.64 140 242.67C200.26 225.37 222.74 263.13 280 235.45C328.94 211.79 317.71 188.79 352.41 140" stroke="rgba(255, 254, 254, 0.99)" stroke-width="2"></path><path d="M818.87 140C823.22 71.05 784.14 52.38 792.05 0C794.71 -17.62 816.03 0 840 0C881.66 0 886.12 -12.41 923.33 0C956.12 10.93 953.23 46.67 980 46.67C1003.2 46.67 995.49 9.26 1023.27 0C1065.49 -14.07 1071.64 0 1120 0C1152.44 0 1157.86 -13.66 1184.88 0C1227.86 21.74 1222.96 70.8 1260 70.8C1295.92 70.8 1289.41 20.93 1330.8 0C1359.41 -14.47 1365.4 0 1400 0C1470 0 1505 -35 1540 0C1575 35 1540 70 1540 140C1540 171.82 1556.4 179.73 1540 203.64C1508.4 249.73 1444 237.83 1444 280C1444 329.34 1501.05 329.86 1540 386.67C1549.05 399.86 1540 403.34 1540 420C1540 438.42 1550.29 442.63 1540 456.84C1499.6 512.63 1493.87 519.29 1438.62 560C1423.87 570.87 1419.31 560 1400 560C1378.04 560 1368.08 575.53 1356.08 560C1313.99 505.53 1291.54 489.89 1291.82 420C1292.11 349.89 1366.08 339.94 1357.22 280C1350.17 232.31 1313.45 233.75 1260 204.73C1194.84 169.35 1185.24 140.49 1120 151.2C1045.24 163.47 1048.71 199.34 980 250.7C962.55 263.74 956.92 260.76 947.69 280C916.31 345.41 928.42 352.33 898.77 420C874.58 475.22 870.11 525.78 840 525.78C809.41 525.78 792.71 477.45 777.37 420C759.9 354.56 764.25 348.32 774.38 280C785 208.32 814.39 211.05 818.87 140" stroke="rgba(255, 254, 254, 0.99)" stroke-width="2"></path><path d="M1400 133.78C1396.84 133.78 1393.78 136.43 1393.78 140C1393.78 145.37 1396.8 151.67 1400 151.67C1403.25 151.67 1406.67 145.33 1406.67 140C1406.67 136.38 1403.28 133.78 1400 133.78" stroke="rgba(255, 254, 254, 0.99)" stroke-width="2"></path><path d="M0 337.75C19.15 337.75 54.4 371.98 67.84 420C85.51 483.11 85.71 511.53 62.22 560C51.79 581.53 9.57 581.54 0 560C-21.54 511.54 0 490 0 420C0 378.88 -14.77 337.75 0 337.75" stroke="rgba(255, 254, 254, 0.99)" stroke-width="2"></path><path d="M518 560C518 552.9 541.32 533.75 560 533.75C572.56 533.75 580.49 551.87 580.49 560C580.49 565 570.24 560 560 560C539 560 518 566.02 518 560" stroke="rgba(255, 254, 254, 0.99)" stroke-width="2"></path><path d="M901.6 560C901.6 551.66 940.17 542.23 980 527.87C1049.37 502.86 1062.24 471.35 1120 481.25C1156.01 487.42 1167.55 534.04 1167.55 560C1167.55 573.42 1143.78 560 1120 560C1050 560 1050 560 980 560C940.8 560 901.6 567.72 901.6 560" stroke="rgba(255, 254, 254, 0.99)" stroke-width="2"></path><path d="M140 32.77C84.5 32.77 21.54 8.34 21.54 0C21.54 -8.04 80.77 0 140 0C158.78 0 177.56 -7.04 177.56 0C177.56 9.34 162.51 32.77 140 32.77" stroke="rgba(255, 254, 254, 0.99)" stroke-width="2"></path><path d="M392.64 140C392.64 116.83 400.72 98.97 420 98.97C456.9 98.97 505 107.5 505 140C505 194.12 450.22 272.22 420 272.22C394.04 272.22 392.64 203.45 392.64 140" stroke="rgba(255, 254, 254, 0.99)" stroke-width="2"></path><path d="M931.54 140C931.54 126.77 956.32 115.29 980 115.29C1000.24 115.29 1019.38 126.86 1019.38 140C1019.38 153.87 1000.39 169.3 980 169.3C956.47 169.3 931.54 153.77 931.54 140" stroke="rgba(255, 254, 254, 0.99)" stroke-width="2"></path><path d="M1120 50.56C1105.56 50.56 1086.91 16.33 1086.91 0C1086.91 -8.95 1103.45 0 1120 0C1131.1 0 1142.2 -7.25 1142.2 0C1142.2 18.03 1133.2 50.56 1120 50.56" stroke="rgba(255, 254, 254, 0.99)" stroke-width="2"></path><path d="M1198.54 140C1198.54 125.9 1229.54 111.03 1260 111.03C1288.27 111.03 1316 125.89 1316 140C1316 153.92 1288.24 167.1 1260 167.1C1229.51 167.1 1198.54 153.94 1198.54 140" stroke="rgba(255, 254, 254, 0.99)" stroke-width="2"></path><path d="M1400 56C1378.73 56 1371.03 19.18 1371.03 0C1371.03 -8.82 1385.51 0 1400 0C1439.38 0 1478.75 -12.57 1478.75 0C1478.75 15.43 1432.59 56 1400 56" stroke="rgba(255, 254, 254, 0.99)" stroke-width="2"></path><path d="M1490 140C1490 110.46 1526.29 67.59 1540 67.59C1551.29 67.59 1540 103.8 1540 140C1540 151.93 1547.53 163.86 1540 163.86C1522.53 163.86 1490 158.6 1490 140" stroke="rgba(255, 254, 254, 0.99)" stroke-width="2"></path><path d="M829.06 280C830.67 263.36 833.07 248.18 840 248.18C847.52 248.18 856.34 262.22 857.95 280C864.12 348.13 862.86 351.64 855.56 420C853.89 435.64 847.97 448 840 448C831.9 448 824.45 435.83 823.42 420C818.98 351.83 822.38 349.27 829.06 280" stroke="rgba(255, 254, 254, 0.99)" stroke-width="2"></path><path d="M0 381.5C8.96 381.5 30.88 396.82 31.75 420C34.22 486.07 21.83 493.14 6.67 560C5.96 563.14 0.15 563.18 0 560C-3.18 493.18 0 490 0 420C0 400.75 -6.91 381.5 0 381.5" stroke="rgba(255, 254, 254, 0.99)" stroke-width="2"></path><path d="M1371.36 420C1371.36 368.38 1377.82 315 1400 315C1425.3 315 1466.32 370.74 1466.32 420C1466.32 458.24 1426.61 490 1400 490C1379.13 490 1371.36 455.88 1371.36 420" stroke="rgba(255, 254, 254, 0.99)" stroke-width="2"></path></g><defs><mask id="SvgjsMask1003"><rect width="1440" height="560" fill="#ffffff"></rect></mask></defs></svg>