<svg xmlns="http://www.w3.org/2000/svg" version="1.1" xmlns:xlink="http://www.w3.org/1999/xlink" xmlns:svgjs="http://svgjs.com/svgjs" width="1440" height="560" preserveAspectRatio="none" viewBox="0 0 1440 560"><g mask="url(&quot;#SvgjsMask1008&quot;)" fill="none"><rect width="1440" height="560" x="0" y="0" fill="#0e2a47"></rect><path d="M-90.56 353.08L-90.56 353.08" stroke="#132e65" stroke-width="1.5"></path><path d="M-90.56 353.08L61.66 360.4" stroke="#132e65" stroke-width="1.5"></path><path d="M-90.56 353.08L-63.28 518.61" stroke="#132e65" stroke-width="1.5"></path><path d="M-90.56 353.08L107.65 491.77" stroke="#132e65" stroke-width="1.5"></path><path d="M-63.28 518.61L-63.28 518.61" stroke="#132e65" stroke-width="1.5"></path><path d="M-63.28 518.61L-86.2 680.83" stroke="#132e65" stroke-width="1.5"></path><path d="M-63.28 518.61L107.65 491.77" stroke="#132e65" stroke-width="1.5"></path><path d="M-63.28 518.61L61.66 360.4" stroke="#132e65" stroke-width="1.5"></path><path d="M-86.2 680.83L-86.2 680.83" stroke="#132e65" stroke-width="1.5"></path><path d="M-86.2 680.83L107.65 491.77" stroke="#132e65" stroke-width="1.5"></path><path d="M-86.2 680.83L-90.56 353.08" stroke="#132e65" stroke-width="1.5"></path><path d="M61.66 360.4L61.66 360.4" stroke="#132e65" stroke-width="1.5"></path><path d="M61.66 360.4L107.65 491.77" stroke="#132e65" stroke-width="1.5"></path><path d="M61.66 360.4L226.18 390.54" stroke="#132e65" stroke-width="1.5"></path><path d="M107.65 491.77L107.65 491.77" stroke="#132e65" stroke-width="1.5"></path><path d="M107.65 491.77L226.18 390.54" stroke="#132e65" stroke-width="1.5"></path><path d="M107.65 491.77L260 525.96" stroke="#132e65" stroke-width="1.5"></path><path d="M107.65 491.77L243.73 671.56" stroke="#132e65" stroke-width="1.5"></path><path d="M226.18 390.54L226.18 390.54" stroke="#132e65" stroke-width="1.5"></path><path d="M226.18 390.54L358.14 387.84" stroke="#132e65" stroke-width="1.5"></path><path d="M226.18 390.54L260 525.96" stroke="#132e65" stroke-width="1.5"></path><path d="M260 525.96L260 525.96" stroke="#132e65" stroke-width="1.5"></path><path d="M260 525.96L364.21 538.06" stroke="#132e65" stroke-width="1.5"></path><path d="M260 525.96L243.73 671.56" stroke="#132e65" stroke-width="1.5"></path><path d="M260 525.96L358.14 387.84" stroke="#132e65" stroke-width="1.5"></path><path d="M243.73 671.56L243.73 671.56" stroke="#132e65" stroke-width="1.5"></path><path d="M243.73 671.56L403.07 708.3" stroke="#132e65" stroke-width="1.5"></path><path d="M243.73 671.56L364.21 538.06" stroke="#132e65" stroke-width="1.5"></path><path d="M358.14 387.84L358.14 387.84" stroke="#132e65" stroke-width="1.5"></path><path d="M358.14 387.84L501.27 405.04" stroke="#132e65" stroke-width="1.5"></path><path d="M358.14 387.84L364.21 538.06" stroke="#132e65" stroke-width="1.5"></path><path d="M364.21 538.06L364.21 538.06" stroke="#132e65" stroke-width="1.5"></path><path d="M364.21 538.06L508.02 488.85" stroke="#132e65" stroke-width="1.5"></path><path d="M364.21 538.06L403.07 708.3" stroke="#132e65" stroke-width="1.5"></path><path d="M403.07 708.3L403.07 708.3" stroke="#132e65" stroke-width="1.5"></path><path d="M403.07 708.3L490.41 701.75" stroke="#132e65" stroke-width="1.5"></path><path d="M403.07 708.3L260 525.96" stroke="#132e65" stroke-width="1.5"></path><path d="M501.27 405.04L501.27 405.04" stroke="#132e65" stroke-width="1.5"></path><path d="M501.27 405.04L508.02 488.85" stroke="#132e65" stroke-width="1.5"></path><path d="M501.27 405.04L364.21 538.06" stroke="#132e65" stroke-width="1.5"></path><path d="M501.27 405.04L709.06 371.62" stroke="#132e65" stroke-width="1.5"></path><path d="M508.02 488.85L508.02 488.85" stroke="#132e65" stroke-width="1.5"></path><path d="M508.02 488.85L358.14 387.84" stroke="#132e65" stroke-width="1.5"></path><path d="M508.02 488.85L490.41 701.75" stroke="#132e65" stroke-width="1.5"></path><path d="M490.41 701.75L490.41 701.75" stroke="#132e65" stroke-width="1.5"></path><path d="M490.41 701.75L685.18 657.73" stroke="#132e65" stroke-width="1.5"></path><path d="M490.41 701.75L364.21 538.06" stroke="#132e65" stroke-width="1.5"></path><path d="M709.06 371.62L709.06 371.62" stroke="#132e65" stroke-width="1.5"></path><path d="M709.06 371.62L826.24 398.55" stroke="#132e65" stroke-width="1.5"></path><path d="M709.06 371.62L793.45 528.11" stroke="#132e65" stroke-width="1.5"></path><path d="M685.18 657.73L685.18 657.73" stroke="#132e65" stroke-width="1.5"></path><path d="M685.18 657.73L796.58 658.07" stroke="#132e65" stroke-width="1.5"></path><path d="M685.18 657.73L793.45 528.11" stroke="#132e65" stroke-width="1.5"></path><path d="M685.18 657.73L508.02 488.85" stroke="#132e65" stroke-width="1.5"></path><path d="M685.18 657.73L403.07 708.3" stroke="#132e65" stroke-width="1.5"></path><path d="M856.54 100.06L856.54 100.06" stroke="#132e65" stroke-width="1.5"></path><path d="M856.54 100.06L945.12 83.64" stroke="#132e65" stroke-width="1.5"></path><path d="M856.54 100.06L827.34 232.03" stroke="#132e65" stroke-width="1.5"></path><path d="M827.34 232.03L827.34 232.03" stroke="#132e65" stroke-width="1.5"></path><path d="M827.34 232.03L826.24 398.55" stroke="#132e65" stroke-width="1.5"></path><path d="M827.34 232.03L996.1 218.23" stroke="#132e65" stroke-width="1.5"></path><path d="M826.24 398.55L826.24 398.55" stroke="#132e65" stroke-width="1.5"></path><path d="M826.24 398.55L793.45 528.11" stroke="#132e65" stroke-width="1.5"></path><path d="M826.24 398.55L957.15 516.45" stroke="#132e65" stroke-width="1.5"></path><path d="M793.45 528.11L793.45 528.11" stroke="#132e65" stroke-width="1.5"></path><path d="M793.45 528.11L796.58 658.07" stroke="#132e65" stroke-width="1.5"></path><path d="M793.45 528.11L957.15 516.45" stroke="#132e65" stroke-width="1.5"></path><path d="M796.58 658.07L796.58 658.07" stroke="#132e65" stroke-width="1.5"></path><path d="M796.58 658.07L985.89 681.7" stroke="#132e65" stroke-width="1.5"></path><path d="M950.96 -56.33L950.96 -56.33" stroke="#132e65" stroke-width="1.5"></path><path d="M950.96 -56.33L945.12 83.64" stroke="#132e65" stroke-width="1.5"></path><path d="M950.96 -56.33L856.54 100.06" stroke="#132e65" stroke-width="1.5"></path><path d="M950.96 -56.33L1133.6 -102.42" stroke="#132e65" stroke-width="1.5"></path><path d="M945.12 83.64L945.12 83.64" stroke="#132e65" stroke-width="1.5"></path><path d="M945.12 83.64L996.1 218.23" stroke="#132e65" stroke-width="1.5"></path><path d="M945.12 83.64L827.34 232.03" stroke="#132e65" stroke-width="1.5"></path><path d="M945.12 83.64L1133.72 197.91" stroke="#132e65" stroke-width="1.5"></path><path d="M945.12 83.64L1133.6 -102.42" stroke="#132e65" stroke-width="1.5"></path><path d="M996.1 218.23L996.1 218.23" stroke="#132e65" stroke-width="1.5"></path><path d="M996.1 218.23L1133.72 197.91" stroke="#132e65" stroke-width="1.5"></path><path d="M957.15 516.45L957.15 516.45" stroke="#132e65" stroke-width="1.5"></path><path d="M957.15 516.45L1095.28 492.1" stroke="#132e65" stroke-width="1.5"></path><path d="M957.15 516.45L985.89 681.7" stroke="#132e65" stroke-width="1.5"></path><path d="M957.15 516.45L1093.54 388.01" stroke="#132e65" stroke-width="1.5"></path><path d="M985.89 681.7L985.89 681.7" stroke="#132e65" stroke-width="1.5"></path><path d="M985.89 681.7L1093.92 692.25" stroke="#132e65" stroke-width="1.5"></path><path d="M1133.6 -102.42L1133.6 -102.42" stroke="#132e65" stroke-width="1.5"></path><path d="M1133.6 -102.42L1254.24 -75" stroke="#132e65" stroke-width="1.5"></path><path d="M1133.6 -102.42L1257.19 91.51" stroke="#132e65" stroke-width="1.5"></path><path d="M1133.6 -102.42L1133.72 197.91" stroke="#132e65" stroke-width="1.5"></path><path d="M1133.6 -102.42L1440.25 -39.04" stroke="#132e65" stroke-width="1.5"></path><path d="M1133.72 197.91L1133.72 197.91" stroke="#132e65" stroke-width="1.5"></path><path d="M1133.72 197.91L1257.19 91.51" stroke="#132e65" stroke-width="1.5"></path><path d="M1133.72 197.91L1305.52 233.27" stroke="#132e65" stroke-width="1.5"></path><path d="M1133.72 197.91L1093.54 388.01" stroke="#132e65" stroke-width="1.5"></path><path d="M1093.54 388.01L1093.54 388.01" stroke="#132e65" stroke-width="1.5"></path><path d="M1093.54 388.01L1095.28 492.1" stroke="#132e65" stroke-width="1.5"></path><path d="M1093.54 388.01L1249.84 402.96" stroke="#132e65" stroke-width="1.5"></path><path d="M1095.28 492.1L1095.28 492.1" stroke="#132e65" stroke-width="1.5"></path><path d="M1095.28 492.1L1250.02 548.32" stroke="#132e65" stroke-width="1.5"></path><path d="M1093.92 692.25L1093.92 692.25" stroke="#132e65" stroke-width="1.5"></path><path d="M1093.92 692.25L1249.6 648.51" stroke="#132e65" stroke-width="1.5"></path><path d="M1093.92 692.25L1095.28 492.1" stroke="#132e65" stroke-width="1.5"></path><path d="M1093.92 692.25L1250.02 548.32" stroke="#132e65" stroke-width="1.5"></path><path d="M1254.24 -75L1254.24 -75" stroke="#132e65" stroke-width="1.5"></path><path d="M1254.24 -75L1257.19 91.51" stroke="#132e65" stroke-width="1.5"></path><path d="M1254.24 -75L1440.25 -39.04" stroke="#132e65" stroke-width="1.5"></path><path d="M1254.24 -75L1448.44 77.02" stroke="#132e65" stroke-width="1.5"></path><path d="M1254.24 -75L1133.72 197.91" stroke="#132e65" stroke-width="1.5"></path><path d="M1257.19 91.51L1257.19 91.51" stroke="#132e65" stroke-width="1.5"></path><path d="M1257.19 91.51L1305.52 233.27" stroke="#132e65" stroke-width="1.5"></path><path d="M1257.19 91.51L1448.44 77.02" stroke="#132e65" stroke-width="1.5"></path><path d="M1305.52 233.27L1305.52 233.27" stroke="#132e65" stroke-width="1.5"></path><path d="M1305.52 233.27L1450.35 227.91" stroke="#132e65" stroke-width="1.5"></path><path d="M1305.52 233.27L1409.5 363.8" stroke="#132e65" stroke-width="1.5"></path><path d="M1249.84 402.96L1249.84 402.96" stroke="#132e65" stroke-width="1.5"></path><path d="M1249.84 402.96L1250.02 548.32" stroke="#132e65" stroke-width="1.5"></path><path d="M1249.84 402.96L1409.5 363.8" stroke="#132e65" stroke-width="1.5"></path><path d="M1249.84 402.96L1095.28 492.1" stroke="#132e65" stroke-width="1.5"></path><path d="M1249.84 402.96L1305.52 233.27" stroke="#132e65" stroke-width="1.5"></path><path d="M1249.84 402.96L1402.67 560.03" stroke="#132e65" stroke-width="1.5"></path><path d="M1250.02 548.32L1250.02 548.32" stroke="#132e65" stroke-width="1.5"></path><path d="M1250.02 548.32L1249.6 648.51" stroke="#132e65" stroke-width="1.5"></path><path d="M1250.02 548.32L1402.67 560.03" stroke="#132e65" stroke-width="1.5"></path><path d="M1250.02 548.32L1093.54 388.01" stroke="#132e65" stroke-width="1.5"></path><path d="M1249.6 648.51L1249.6 648.51" stroke="#132e65" stroke-width="1.5"></path><path d="M1249.6 648.51L1402.67 560.03" stroke="#132e65" stroke-width="1.5"></path><path d="M1440.25 -39.04L1440.25 -39.04" stroke="#132e65" stroke-width="1.5"></path><path d="M1440.25 -39.04L1448.44 77.02" stroke="#132e65" stroke-width="1.5"></path><path d="M1440.25 -39.04L1558.39 -39.23" stroke="#132e65" stroke-width="1.5"></path><path d="M1440.25 -39.04L1585.43 42.8" stroke="#132e65" stroke-width="1.5"></path><path d="M1440.25 -39.04L1257.19 91.51" stroke="#132e65" stroke-width="1.5"></path><path d="M1448.44 77.02L1448.44 77.02" stroke="#132e65" stroke-width="1.5"></path><path d="M1448.44 77.02L1585.43 42.8" stroke="#132e65" stroke-width="1.5"></path><path d="M1448.44 77.02L1450.35 227.91" stroke="#132e65" stroke-width="1.5"></path><path d="M1448.44 77.02L1558.39 -39.23" stroke="#132e65" stroke-width="1.5"></path><path d="M1448.44 77.02L1549.82 236.43" stroke="#132e65" stroke-width="1.5"></path><path d="M1450.35 227.91L1450.35 227.91" stroke="#132e65" stroke-width="1.5"></path><path d="M1450.35 227.91L1549.82 236.43" stroke="#132e65" stroke-width="1.5"></path><path d="M1450.35 227.91L1409.5 363.8" stroke="#132e65" stroke-width="1.5"></path><path d="M1450.35 227.91L1568.09 381.41" stroke="#132e65" stroke-width="1.5"></path><path d="M1450.35 227.91L1585.43 42.8" stroke="#132e65" stroke-width="1.5"></path><path d="M1409.5 363.8L1409.5 363.8" stroke="#132e65" stroke-width="1.5"></path><path d="M1409.5 363.8L1568.09 381.41" stroke="#132e65" stroke-width="1.5"></path><path d="M1402.67 560.03L1402.67 560.03" stroke="#132e65" stroke-width="1.5"></path><path d="M1402.67 560.03L1538.47 509.57" stroke="#132e65" stroke-width="1.5"></path><path d="M1402.67 560.03L1409.5 363.8" stroke="#132e65" stroke-width="1.5"></path><path d="M1558.39 -39.23L1558.39 -39.23" stroke="#132e65" stroke-width="1.5"></path><path d="M1558.39 -39.23L1585.43 42.8" stroke="#132e65" stroke-width="1.5"></path><path d="M1558.39 -39.23L1549.82 236.43" stroke="#132e65" stroke-width="1.5"></path><path d="M1558.39 -39.23L1450.35 227.91" stroke="#132e65" stroke-width="1.5"></path><path d="M1585.43 42.8L1585.43 42.8" stroke="#132e65" stroke-width="1.5"></path><path d="M1585.43 42.8L1549.82 236.43" stroke="#132e65" stroke-width="1.5"></path><path d="M1549.82 236.43L1549.82 236.43" stroke="#132e65" stroke-width="1.5"></path><path d="M1549.82 236.43L1568.09 381.41" stroke="#132e65" stroke-width="1.5"></path><path d="M1549.82 236.43L1409.5 363.8" stroke="#132e65" stroke-width="1.5"></path><path d="M1568.09 381.41L1568.09 381.41" stroke="#132e65" stroke-width="1.5"></path><path d="M1568.09 381.41L1538.47 509.57" stroke="#132e65" stroke-width="1.5"></path><path d="M1568.09 381.41L1402.67 560.03" stroke="#132e65" stroke-width="1.5"></path><path d="M1568.09 381.41L1305.52 233.27" stroke="#132e65" stroke-width="1.5"></path><path d="M1538.47 509.57L1538.47 509.57" stroke="#132e65" stroke-width="1.5"></path><path d="M1588.74 695.94L1588.74 695.94" stroke="#132e65" stroke-width="1.5"></path><path d="M1588.74 695.94L1538.47 509.57" stroke="#132e65" stroke-width="1.5"></path><path d="M1588.74 695.94L1402.67 560.03" stroke="#132e65" stroke-width="1.5"></path><circle r="5" cx="-90.56" cy="353.08" fill="#132e65"></circle><circle r="5" cx="-63.28" cy="518.61" fill="#132e65"></circle><circle r="5" cx="-86.2" cy="680.83" fill="#132e65"></circle><circle r="5" cx="61.66" cy="360.4" fill="#132e65"></circle><circle r="5" cx="107.65" cy="491.77" fill="#132e65"></circle><circle r="5" cx="226.18" cy="390.54" fill="#132e65"></circle><circle r="5" cx="260" cy="525.96" fill="#132e65"></circle><circle r="5" cx="243.73" cy="671.56" fill="#132e65"></circle><circle r="5" cx="358.14" cy="387.84" fill="#132e65"></circle><circle r="5" cx="364.21" cy="538.06" fill="#132e65"></circle><circle r="5" cx="403.07" cy="708.3" fill="#132e65"></circle><circle r="5" cx="501.27" cy="405.04" fill="#132e65"></circle><circle r="5" cx="508.02" cy="488.85" fill="#132e65"></circle><circle r="5" cx="490.41" cy="701.75" fill="#132e65"></circle><circle r="5" cx="709.06" cy="371.62" fill="#132e65"></circle><circle r="5" cx="685.18" cy="657.73" fill="#132e65"></circle><circle r="5" cx="856.54" cy="100.06" fill="#132e65"></circle><circle r="5" cx="827.34" cy="232.03" fill="#132e65"></circle><circle r="5" cx="826.24" cy="398.55" fill="#132e65"></circle><circle r="5" cx="793.45" cy="528.11" fill="#132e65"></circle><circle r="5" cx="796.58" cy="658.07" fill="#132e65"></circle><circle r="5" cx="950.96" cy="-56.33" fill="#132e65"></circle><circle r="5" cx="945.12" cy="83.64" fill="#132e65"></circle><circle r="5" cx="996.1" cy="218.23" fill="#132e65"></circle><circle r="5" cx="957.15" cy="516.45" fill="#132e65"></circle><circle r="5" cx="985.89" cy="681.7" fill="#132e65"></circle><circle r="5" cx="1133.6" cy="-102.42" fill="#132e65"></circle><circle r="5" cx="1133.72" cy="197.91" fill="#132e65"></circle><circle r="5" cx="1093.54" cy="388.01" fill="#132e65"></circle><circle r="5" cx="1095.28" cy="492.1" fill="#132e65"></circle><circle r="5" cx="1093.92" cy="692.25" fill="#132e65"></circle><circle r="5" cx="1254.24" cy="-75" fill="#132e65"></circle><circle r="5" cx="1257.19" cy="91.51" fill="#132e65"></circle><circle r="5" cx="1305.52" cy="233.27" fill="#132e65"></circle><circle r="5" cx="1249.84" cy="402.96" fill="#132e65"></circle><circle r="5" cx="1250.02" cy="548.32" fill="#132e65"></circle><circle r="5" cx="1249.6" cy="648.51" fill="#132e65"></circle><circle r="5" cx="1440.25" cy="-39.04" fill="#132e65"></circle><circle r="5" cx="1448.44" cy="77.02" fill="#132e65"></circle><circle r="5" cx="1450.35" cy="227.91" fill="#132e65"></circle><circle r="5" cx="1409.5" cy="363.8" fill="#132e65"></circle><circle r="5" cx="1402.67" cy="560.03" fill="#132e65"></circle><circle r="5" cx="1558.39" cy="-39.23" fill="#132e65"></circle><circle r="5" cx="1585.43" cy="42.8" fill="#132e65"></circle><circle r="5" cx="1549.82" cy="236.43" fill="#132e65"></circle><circle r="5" cx="1568.09" cy="381.41" fill="#132e65"></circle><circle r="5" cx="1538.47" cy="509.57" fill="#132e65"></circle><circle r="5" cx="1588.74" cy="695.94" fill="#132e65"></circle><path d="M94.58 495.98L94.58 495.98" stroke="hsl(228.5, 77.2%, 51.5%)" stroke-width="1.5"></path><path d="M94.58 495.98L226.83 554.77" stroke="hsl(228.5, 77.2%, 51.5%)" stroke-width="1.5"></path><path d="M94.58 495.98L-74.35 537.03" stroke="hsl(228.5, 77.2%, 51.5%)" stroke-width="1.5"></path><path d="M94.58 495.98L219.32 638" stroke="hsl(228.5, 77.2%, 51.5%)" stroke-width="1.5"></path><path d="M94.58 495.98L-76.78 691.92" stroke="hsl(228.5, 77.2%, 51.5%)" stroke-width="1.5"></path><path d="M94.58 495.98L397.95 497.46" stroke="hsl(228.5, 77.2%, 51.5%)" stroke-width="1.5"></path><path d="M508.76 522.71L508.76 522.71" stroke="hsl(228.5, 77.2%, 51.5%)" stroke-width="1.5"></path><path d="M508.76 522.71L397.95 497.46" stroke="hsl(228.5, 77.2%, 51.5%)" stroke-width="1.5"></path><path d="M508.76 522.71L639.08 521.1" stroke="hsl(228.5, 77.2%, 51.5%)" stroke-width="1.5"></path><path d="M508.76 522.71L544.61 684.83" stroke="hsl(228.5, 77.2%, 51.5%)" stroke-width="1.5"></path><path d="M508.76 522.71L650.81 400.43" stroke="hsl(228.5, 77.2%, 51.5%)" stroke-width="1.5"></path><path d="M1264.82 703.5L1264.82 703.5" stroke="hsl(228.5, 77.2%, 51.5%)" stroke-width="1.5"></path><path d="M1264.82 703.5L1405.21 686.68" stroke="hsl(228.5, 77.2%, 51.5%)" stroke-width="1.5"></path><path d="M1264.82 703.5L1100.24 694.15" stroke="hsl(228.5, 77.2%, 51.5%)" stroke-width="1.5"></path><path d="M1432 260.78L1432 260.78" stroke="hsl(228.5, 77.2%, 51.5%)" stroke-width="1.5"></path><path d="M1432 260.78L1420.02 400.66" stroke="hsl(228.5, 77.2%, 51.5%)" stroke-width="1.5"></path><path d="M1432 260.78L1290.68 347.92" stroke="hsl(228.5, 77.2%, 51.5%)" stroke-width="1.5"></path><path d="M1432 260.78L1573.84 373.95" stroke="hsl(228.5, 77.2%, 51.5%)" stroke-width="1.5"></path><path d="M1432 260.78L1611.22 215.58" stroke="hsl(228.5, 77.2%, 51.5%)" stroke-width="1.5"></path><path d="M1432 260.78L1254.74 198.56" stroke="hsl(228.5, 77.2%, 51.5%)" stroke-width="1.5"></path><path d="M1432 260.78L1419.81 65.02" stroke="hsl(228.5, 77.2%, 51.5%)" stroke-width="1.5"></path><path d="M1405.21 686.68L1405.21 686.68" stroke="hsl(228.5, 77.2%, 51.5%)" stroke-width="1.5"></path><path d="M1405.21 686.68L1548.11 672.66" stroke="hsl(228.5, 77.2%, 51.5%)" stroke-width="1.5"></path><path d="M1405.21 686.68L1437.78 503.57" stroke="hsl(228.5, 77.2%, 51.5%)" stroke-width="1.5"></path><path d="M1574.94 43.47L1574.94 43.47" stroke="hsl(228.5, 77.2%, 51.5%)" stroke-width="1.5"></path><path d="M1574.94 43.47L1551.02 -40.27" stroke="hsl(228.5, 77.2%, 51.5%)" stroke-width="1.5"></path><path d="M1574.94 43.47L1419.81 65.02" stroke="hsl(228.5, 77.2%, 51.5%)" stroke-width="1.5"></path><path d="M1573.84 373.95L1573.84 373.95" stroke="hsl(228.5, 77.2%, 51.5%)" stroke-width="1.5"></path><path d="M1573.84 373.95L1420.02 400.66" stroke="hsl(228.5, 77.2%, 51.5%)" stroke-width="1.5"></path><path d="M1573.84 373.95L1611.22 215.58" stroke="hsl(228.5, 77.2%, 51.5%)" stroke-width="1.5"></path><path d="M-74.35 537.03L-74.35 537.03" stroke="hsl(228.5, 77.2%, 51.5%)" stroke-width="1.5"></path><path d="M-74.35 537.03L-76.78 691.92" stroke="hsl(228.5, 77.2%, 51.5%)" stroke-width="1.5"></path><path d="M-74.35 537.03L226.83 554.77" stroke="hsl(228.5, 77.2%, 51.5%)" stroke-width="1.5"></path><path d="M-74.35 537.03L219.32 638" stroke="hsl(228.5, 77.2%, 51.5%)" stroke-width="1.5"></path><path d="M-76.78 691.92L-76.78 691.92" stroke="hsl(228.5, 77.2%, 51.5%)" stroke-width="1.5"></path><path d="M-76.78 691.92L219.32 638" stroke="hsl(228.5, 77.2%, 51.5%)" stroke-width="1.5"></path><path d="M-76.78 691.92L226.83 554.77" stroke="hsl(228.5, 77.2%, 51.5%)" stroke-width="1.5"></path><path d="M-76.78 691.92L354.46 702.78" stroke="hsl(228.5, 77.2%, 51.5%)" stroke-width="1.5"></path><path d="M226.83 554.77L226.83 554.77" stroke="hsl(228.5, 77.2%, 51.5%)" stroke-width="1.5"></path><path d="M226.83 554.77L219.32 638" stroke="hsl(228.5, 77.2%, 51.5%)" stroke-width="1.5"></path><path d="M226.83 554.77L397.95 497.46" stroke="hsl(228.5, 77.2%, 51.5%)" stroke-width="1.5"></path><path d="M226.83 554.77L354.46 702.78" stroke="hsl(228.5, 77.2%, 51.5%)" stroke-width="1.5"></path><path d="M226.83 554.77L508.76 522.71" stroke="hsl(228.5, 77.2%, 51.5%)" stroke-width="1.5"></path><path d="M219.32 638L219.32 638" stroke="hsl(228.5, 77.2%, 51.5%)" stroke-width="1.5"></path><path d="M219.32 638L354.46 702.78" stroke="hsl(228.5, 77.2%, 51.5%)" stroke-width="1.5"></path><path d="M397.95 497.46L397.95 497.46" stroke="hsl(228.5, 77.2%, 51.5%)" stroke-width="1.5"></path><path d="M397.95 497.46L354.46 702.78" stroke="hsl(228.5, 77.2%, 51.5%)" stroke-width="1.5"></path><path d="M397.95 497.46L219.32 638" stroke="hsl(228.5, 77.2%, 51.5%)" stroke-width="1.5"></path><path d="M397.95 497.46L544.61 684.83" stroke="hsl(228.5, 77.2%, 51.5%)" stroke-width="1.5"></path><path d="M354.46 702.78L354.46 702.78" stroke="hsl(228.5, 77.2%, 51.5%)" stroke-width="1.5"></path><path d="M354.46 702.78L544.61 684.83" stroke="hsl(228.5, 77.2%, 51.5%)" stroke-width="1.5"></path><path d="M544.61 684.83L544.61 684.83" stroke="hsl(228.5, 77.2%, 51.5%)" stroke-width="1.5"></path><path d="M544.61 684.83L700.52 694.36" stroke="hsl(228.5, 77.2%, 51.5%)" stroke-width="1.5"></path><path d="M650.81 400.43L650.81 400.43" stroke="hsl(228.5, 77.2%, 51.5%)" stroke-width="1.5"></path><path d="M650.81 400.43L639.08 521.1" stroke="hsl(228.5, 77.2%, 51.5%)" stroke-width="1.5"></path><path d="M650.81 400.43L849.82 384.24" stroke="hsl(228.5, 77.2%, 51.5%)" stroke-width="1.5"></path><path d="M650.81 400.43L829.12 504.4" stroke="hsl(228.5, 77.2%, 51.5%)" stroke-width="1.5"></path><path d="M639.08 521.1L639.08 521.1" stroke="hsl(228.5, 77.2%, 51.5%)" stroke-width="1.5"></path><path d="M639.08 521.1L700.52 694.36" stroke="hsl(228.5, 77.2%, 51.5%)" stroke-width="1.5"></path><path d="M700.52 694.36L700.52 694.36" stroke="hsl(228.5, 77.2%, 51.5%)" stroke-width="1.5"></path><path d="M700.52 694.36L821.95 689.53" stroke="hsl(228.5, 77.2%, 51.5%)" stroke-width="1.5"></path><path d="M849.82 384.24L849.82 384.24" stroke="hsl(228.5, 77.2%, 51.5%)" stroke-width="1.5"></path><path d="M849.82 384.24L829.12 504.4" stroke="hsl(228.5, 77.2%, 51.5%)" stroke-width="1.5"></path><path d="M849.82 384.24L978.05 392.45" stroke="hsl(228.5, 77.2%, 51.5%)" stroke-width="1.5"></path><path d="M849.82 384.24L997.76 539.87" stroke="hsl(228.5, 77.2%, 51.5%)" stroke-width="1.5"></path><path d="M849.82 384.24L639.08 521.1" stroke="hsl(228.5, 77.2%, 51.5%)" stroke-width="1.5"></path><path d="M829.12 504.4L829.12 504.4" stroke="hsl(228.5, 77.2%, 51.5%)" stroke-width="1.5"></path><path d="M829.12 504.4L997.76 539.87" stroke="hsl(228.5, 77.2%, 51.5%)" stroke-width="1.5"></path><path d="M829.12 504.4L821.95 689.53" stroke="hsl(228.5, 77.2%, 51.5%)" stroke-width="1.5"></path><path d="M829.12 504.4L978.05 392.45" stroke="hsl(228.5, 77.2%, 51.5%)" stroke-width="1.5"></path><path d="M829.12 504.4L639.08 521.1" stroke="hsl(228.5, 77.2%, 51.5%)" stroke-width="1.5"></path><path d="M821.95 689.53L821.95 689.53" stroke="hsl(228.5, 77.2%, 51.5%)" stroke-width="1.5"></path><path d="M821.95 689.53L985.85 668.32" stroke="hsl(228.5, 77.2%, 51.5%)" stroke-width="1.5"></path><path d="M978.05 392.45L978.05 392.45" stroke="hsl(228.5, 77.2%, 51.5%)" stroke-width="1.5"></path><path d="M978.05 392.45L1116.11 368.91" stroke="hsl(228.5, 77.2%, 51.5%)" stroke-width="1.5"></path><path d="M978.05 392.45L997.76 539.87" stroke="hsl(228.5, 77.2%, 51.5%)" stroke-width="1.5"></path><path d="M978.05 392.45L1127.2 521.17" stroke="hsl(228.5, 77.2%, 51.5%)" stroke-width="1.5"></path><path d="M997.76 539.87L997.76 539.87" stroke="hsl(228.5, 77.2%, 51.5%)" stroke-width="1.5"></path><path d="M997.76 539.87L985.85 668.32" stroke="hsl(228.5, 77.2%, 51.5%)" stroke-width="1.5"></path><path d="M997.76 539.87L1127.2 521.17" stroke="hsl(228.5, 77.2%, 51.5%)" stroke-width="1.5"></path><path d="M997.76 539.87L1100.24 694.15" stroke="hsl(228.5, 77.2%, 51.5%)" stroke-width="1.5"></path><path d="M985.85 668.32L985.85 668.32" stroke="hsl(228.5, 77.2%, 51.5%)" stroke-width="1.5"></path><path d="M985.85 668.32L1100.24 694.15" stroke="hsl(228.5, 77.2%, 51.5%)" stroke-width="1.5"></path><path d="M985.85 668.32L1127.2 521.17" stroke="hsl(228.5, 77.2%, 51.5%)" stroke-width="1.5"></path><path d="M985.85 668.32L829.12 504.4" stroke="hsl(228.5, 77.2%, 51.5%)" stroke-width="1.5"></path><path d="M1090.59 213.24L1090.59 213.24" stroke="hsl(228.5, 77.2%, 51.5%)" stroke-width="1.5"></path><path d="M1090.59 213.24L1116.11 368.91" stroke="hsl(228.5, 77.2%, 51.5%)" stroke-width="1.5"></path><path d="M1090.59 213.24L1254.74 198.56" stroke="hsl(228.5, 77.2%, 51.5%)" stroke-width="1.5"></path><path d="M1090.59 213.24L978.05 392.45" stroke="hsl(228.5, 77.2%, 51.5%)" stroke-width="1.5"></path><path d="M1090.59 213.24L1254.02 59.4" stroke="hsl(228.5, 77.2%, 51.5%)" stroke-width="1.5"></path><path d="M1116.11 368.91L1116.11 368.91" stroke="hsl(228.5, 77.2%, 51.5%)" stroke-width="1.5"></path><path d="M1116.11 368.91L1127.2 521.17" stroke="hsl(228.5, 77.2%, 51.5%)" stroke-width="1.5"></path><path d="M1127.2 521.17L1127.2 521.17" stroke="hsl(228.5, 77.2%, 51.5%)" stroke-width="1.5"></path><path d="M1127.2 521.17L1272.77 525.81" stroke="hsl(228.5, 77.2%, 51.5%)" stroke-width="1.5"></path><path d="M1127.2 521.17L1100.24 694.15" stroke="hsl(228.5, 77.2%, 51.5%)" stroke-width="1.5"></path><path d="M1100.24 694.15L1100.24 694.15" stroke="hsl(228.5, 77.2%, 51.5%)" stroke-width="1.5"></path><path d="M1281.76 -55.35L1281.76 -55.35" stroke="hsl(228.5, 77.2%, 51.5%)" stroke-width="1.5"></path><path d="M1281.76 -55.35L1254.02 59.4" stroke="hsl(228.5, 77.2%, 51.5%)" stroke-width="1.5"></path><path d="M1281.76 -55.35L1460.01 -80.62" stroke="hsl(228.5, 77.2%, 51.5%)" stroke-width="1.5"></path><path d="M1281.76 -55.35L1419.81 65.02" stroke="hsl(228.5, 77.2%, 51.5%)" stroke-width="1.5"></path><path d="M1254.02 59.4L1254.02 59.4" stroke="hsl(228.5, 77.2%, 51.5%)" stroke-width="1.5"></path><path d="M1254.02 59.4L1254.74 198.56" stroke="hsl(228.5, 77.2%, 51.5%)" stroke-width="1.5"></path><path d="M1254.02 59.4L1419.81 65.02" stroke="hsl(228.5, 77.2%, 51.5%)" stroke-width="1.5"></path><path d="M1254.74 198.56L1254.74 198.56" stroke="hsl(228.5, 77.2%, 51.5%)" stroke-width="1.5"></path><path d="M1254.74 198.56L1290.68 347.92" stroke="hsl(228.5, 77.2%, 51.5%)" stroke-width="1.5"></path><path d="M1290.68 347.92L1290.68 347.92" stroke="hsl(228.5, 77.2%, 51.5%)" stroke-width="1.5"></path><path d="M1290.68 347.92L1420.02 400.66" stroke="hsl(228.5, 77.2%, 51.5%)" stroke-width="1.5"></path><path d="M1272.77 525.81L1272.77 525.81" stroke="hsl(228.5, 77.2%, 51.5%)" stroke-width="1.5"></path><path d="M1272.77 525.81L1437.78 503.57" stroke="hsl(228.5, 77.2%, 51.5%)" stroke-width="1.5"></path><path d="M1272.77 525.81L1264.82 703.5" stroke="hsl(228.5, 77.2%, 51.5%)" stroke-width="1.5"></path><path d="M1272.77 525.81L1290.68 347.92" stroke="hsl(228.5, 77.2%, 51.5%)" stroke-width="1.5"></path><path d="M1272.77 525.81L1420.02 400.66" stroke="hsl(228.5, 77.2%, 51.5%)" stroke-width="1.5"></path><path d="M1272.77 525.81L1405.21 686.68" stroke="hsl(228.5, 77.2%, 51.5%)" stroke-width="1.5"></path><path d="M1460.01 -80.62L1460.01 -80.62" stroke="hsl(228.5, 77.2%, 51.5%)" stroke-width="1.5"></path><path d="M1460.01 -80.62L1551.02 -40.27" stroke="hsl(228.5, 77.2%, 51.5%)" stroke-width="1.5"></path><path d="M1460.01 -80.62L1419.81 65.02" stroke="hsl(228.5, 77.2%, 51.5%)" stroke-width="1.5"></path><path d="M1460.01 -80.62L1574.94 43.47" stroke="hsl(228.5, 77.2%, 51.5%)" stroke-width="1.5"></path><path d="M1460.01 -80.62L1254.02 59.4" stroke="hsl(228.5, 77.2%, 51.5%)" stroke-width="1.5"></path><path d="M1460.01 -80.62L1611.22 215.58" stroke="hsl(228.5, 77.2%, 51.5%)" stroke-width="1.5"></path><path d="M1419.81 65.02L1419.81 65.02" stroke="hsl(228.5, 77.2%, 51.5%)" stroke-width="1.5"></path><path d="M1419.81 65.02L1551.02 -40.27" stroke="hsl(228.5, 77.2%, 51.5%)" stroke-width="1.5"></path><path d="M1420.02 400.66L1420.02 400.66" stroke="hsl(228.5, 77.2%, 51.5%)" stroke-width="1.5"></path><path d="M1420.02 400.66L1437.78 503.57" stroke="hsl(228.5, 77.2%, 51.5%)" stroke-width="1.5"></path><path d="M1437.78 503.57L1437.78 503.57" stroke="hsl(228.5, 77.2%, 51.5%)" stroke-width="1.5"></path><path d="M1551.02 -40.27L1551.02 -40.27" stroke="hsl(228.5, 77.2%, 51.5%)" stroke-width="1.5"></path><path d="M1611.22 215.58L1611.22 215.58" stroke="hsl(228.5, 77.2%, 51.5%)" stroke-width="1.5"></path><path d="M1611.22 215.58L1574.94 43.47" stroke="hsl(228.5, 77.2%, 51.5%)" stroke-width="1.5"></path><path d="M1611.22 215.58L1419.81 65.02" stroke="hsl(228.5, 77.2%, 51.5%)" stroke-width="1.5"></path><path d="M1611.22 215.58L1551.02 -40.27" stroke="hsl(228.5, 77.2%, 51.5%)" stroke-width="1.5"></path><path d="M1611.22 215.58L1420.02 400.66" stroke="hsl(228.5, 77.2%, 51.5%)" stroke-width="1.5"></path><path d="M1548.11 672.66L1548.11 672.66" stroke="hsl(228.5, 77.2%, 51.5%)" stroke-width="1.5"></path><path d="M1548.11 672.66L1437.78 503.57" stroke="hsl(228.5, 77.2%, 51.5%)" stroke-width="1.5"></path><path d="M1548.11 672.66L1264.82 703.5" stroke="hsl(228.5, 77.2%, 51.5%)" stroke-width="1.5"></path><path d="M1548.11 672.66L1573.84 373.95" stroke="hsl(228.5, 77.2%, 51.5%)" stroke-width="1.5"></path><path d="M1548.11 672.66L1420.02 400.66" stroke="hsl(228.5, 77.2%, 51.5%)" stroke-width="1.5"></path><circle r="25" cx="94.58" cy="495.98" fill="url(#SvgjsRadialGradient1009)"></circle><circle r="25" cx="508.76" cy="522.71" fill="url(#SvgjsRadialGradient1009)"></circle><circle r="25" cx="1264.82" cy="703.5" fill="url(#SvgjsRadialGradient1009)"></circle><circle r="25" cx="1432" cy="260.78" fill="url(#SvgjsRadialGradient1009)"></circle><circle r="25" cx="1405.21" cy="686.68" fill="url(#SvgjsRadialGradient1009)"></circle><circle r="25" cx="1574.94" cy="43.47" fill="url(#SvgjsRadialGradient1009)"></circle><circle r="25" cx="1573.84" cy="373.95" fill="url(#SvgjsRadialGradient1009)"></circle><circle r="5" cx="-74.35" cy="537.03" fill="#8b9ad9"></circle><circle r="5" cx="-76.78" cy="691.92" fill="#8b9ad9"></circle><circle r="5" cx="226.83" cy="554.77" fill="#8b9ad9"></circle><circle r="5" cx="219.32" cy="638" fill="#8b9ad9"></circle><circle r="5" cx="397.95" cy="497.46" fill="#8b9ad9"></circle><circle r="5" cx="354.46" cy="702.78" fill="#8b9ad9"></circle><circle r="5" cx="544.61" cy="684.83" fill="#8b9ad9"></circle><circle r="5" cx="650.81" cy="400.43" fill="#8b9ad9"></circle><circle r="5" cx="639.08" cy="521.1" fill="#8b9ad9"></circle><circle r="5" cx="700.52" cy="694.36" fill="#8b9ad9"></circle><circle r="5" cx="849.82" cy="384.24" fill="#8b9ad9"></circle><circle r="5" cx="829.12" cy="504.4" fill="#8b9ad9"></circle><circle r="5" cx="821.95" cy="689.53" fill="#8b9ad9"></circle><circle r="5" cx="978.05" cy="392.45" fill="#8b9ad9"></circle><circle r="5" cx="997.76" cy="539.87" fill="#8b9ad9"></circle><circle r="5" cx="985.85" cy="668.32" fill="#8b9ad9"></circle><circle r="5" cx="1090.59" cy="213.24" fill="#8b9ad9"></circle><circle r="5" cx="1116.11" cy="368.91" fill="#8b9ad9"></circle><circle r="5" cx="1127.2" cy="521.17" fill="#8b9ad9"></circle><circle r="5" cx="1100.24" cy="694.15" fill="#8b9ad9"></circle><circle r="5" cx="1281.76" cy="-55.35" fill="#8b9ad9"></circle><circle r="5" cx="1254.02" cy="59.4" fill="#8b9ad9"></circle><circle r="5" cx="1254.74" cy="198.56" fill="#8b9ad9"></circle><circle r="5" cx="1290.68" cy="347.92" fill="#8b9ad9"></circle><circle r="5" cx="1272.77" cy="525.81" fill="#8b9ad9"></circle><circle r="5" cx="1460.01" cy="-80.62" fill="#8b9ad9"></circle><circle r="5" cx="1419.81" cy="65.02" fill="#8b9ad9"></circle><circle r="5" cx="1420.02" cy="400.66" fill="#8b9ad9"></circle><circle r="5" cx="1437.78" cy="503.57" fill="#8b9ad9"></circle><circle r="5" cx="1551.02" cy="-40.27" fill="#8b9ad9"></circle><circle r="5" cx="1611.22" cy="215.58" fill="#8b9ad9"></circle><circle r="5" cx="1548.11" cy="672.66" fill="#8b9ad9"></circle></g><defs><mask id="SvgjsMask1008"><rect width="1440" height="560" fill="#ffffff"></rect></mask><radialGradient id="SvgjsRadialGradient1009"><stop stop-color="#ffffff" offset="0.1"></stop><stop stop-color="#1735b3" offset="0.2"></stop><stop stop-color="rgba(23, 53, 179, 0)" offset="1"></stop></radialGradient></defs></svg>